<svg width="16" height="20" viewBox="0 0 16 20" fill="none" xmlns="http://www.w3.org/2000/svg">
<path d="M7.8273 10.8C8.71577 10.8 9.56786 10.447 10.1961 9.81878C10.8243 9.19054 11.1773 8.33845 11.1773 7.44998C11.1773 6.5615 10.8243 5.70942 10.1961 5.08117C9.56786 4.45292 8.71577 4.09998 7.8273 4.09998C6.93882 4.09998 6.08673 4.45292 5.45849 5.08117C4.83024 5.70942 4.47729 6.5615 4.47729 7.44998C4.47729 8.33845 4.83024 9.19054 5.45849 9.81878C6.08673 10.447 6.93882 10.8 7.8273 10.8Z" stroke="#4BB9AA" stroke-width="1.5" stroke-miterlimit="10" stroke-linecap="round"/>
<path d="M7.82726 0.75C1.12726 0.75 0.01026 6.333 1.12726 10.565C2.11026 14.273 5.05726 16.807 7.00126 18.885C7.10594 19 7.23349 19.0919 7.37572 19.1547C7.51796 19.2176 7.67175 19.2501 7.82726 19.2501C7.98277 19.2501 8.13656 19.2176 8.2788 19.1547C8.42103 19.0919 8.54858 19 8.65326 18.885C10.5963 16.807 13.5443 14.273 14.5273 10.565C15.6443 6.333 14.5273 0.75 7.82726 0.75Z" stroke="#4BB9AA" stroke-width="1.5" stroke-miterlimit="10" stroke-linecap="round"/>
</svg>
