<svg width="128" height="105" viewBox="0 0 128 105" fill="none" xmlns="http://www.w3.org/2000/svg">
<path d="M59.171 72.6259C59.171 52.7259 74.352 35.7109 96.314 35.7109C98.4164 35.7108 100.516 35.8732 102.593 36.1969C102.593 28.1279 102.586 20.4739 102.583 13.9639C102.583 13.1136 102.416 12.2716 102.09 11.486C101.765 10.7005 101.288 9.9868 100.686 9.38586C100.085 8.78492 99.3703 8.3085 98.5844 7.98385C97.7985 7.65921 96.9563 7.49272 96.106 7.4939H83.037L21.356 7.5239H6.47201C5.62111 7.52337 4.77846 7.69075 3.99235 8.01644C3.20624 8.34212 2.49212 8.81972 1.8909 9.42187C1.28969 10.024 0.813192 10.7389 0.488719 11.5255C0.164246 12.3121 -0.0018268 13.155 1.51556e-05 14.0059C0.00801516 33.1259 0.022015 66.0459 0.029015 79.9249C0.0287512 80.775 0.196103 81.6167 0.521495 82.402C0.846887 83.1873 1.32393 83.9008 1.92534 84.5015C2.52674 85.1023 3.2407 85.5786 4.02636 85.9031C4.81202 86.2276 5.65396 86.3941 6.50402 86.3929L61.376 86.3659C59.8862 81.9394 59.1411 77.2963 59.171 72.6259Z" fill="#D9D9D9"/>
<path d="M26.6283 28.166L21.6713 28.175C20.8775 28.1855 20.1179 28.5001 19.5493 29.054C18.9868 29.6166 18.6709 30.3795 18.6709 31.175C18.6709 31.9705 18.9868 32.7334 19.5493 33.296C20.119 33.8484 20.8778 34.1627 21.6713 34.175L26.6243 34.166C27.4177 34.1553 28.1768 33.8407 28.7453 33.287C29.3077 32.7244 29.6236 31.9615 29.6236 31.166C29.6236 30.3705 29.3077 29.6076 28.7453 29.045C28.1759 28.4927 27.4174 28.1784 26.6243 28.166H26.6283Z" fill="#4BB9AA"/>
<path d="M44.8389 27.8071L39.8859 27.8161C39.0921 27.8266 38.3325 28.1412 37.7639 28.6951C37.2014 29.2577 36.8855 30.0206 36.8855 30.8161C36.8855 31.6116 37.2014 32.3745 37.7639 32.9371C38.3336 33.4895 39.0924 33.8038 39.8859 33.8161L44.8389 33.8071C45.6323 33.7964 46.3914 33.4818 46.9599 32.9281C47.5223 32.3655 47.8382 31.6026 47.8382 30.8071C47.8382 30.0116 47.5223 29.2487 46.9599 28.6861C46.3905 28.1338 45.632 27.8195 44.8389 27.8071Z" fill="#645D5C"/>
<path d="M63.3498 27.8071L58.3968 27.8161C57.6032 27.8262 56.8439 28.1409 56.2758 28.6951C55.7134 29.2577 55.3975 30.0206 55.3975 30.8161C55.3975 31.6116 55.7134 32.3745 56.2758 32.9371C56.8451 33.4896 57.6037 33.804 58.3968 33.8161L63.3498 33.8071C64.1436 33.7966 64.9031 33.482 65.4718 32.9281C66.0342 32.3655 66.3502 31.6026 66.3502 30.8071C66.3502 30.0116 66.0342 29.2487 65.4718 28.6861C64.9021 28.1338 64.1432 27.8194 63.3498 27.8071Z" fill="#645D5C"/>
<path d="M81.8608 27.8071L76.9078 27.8161C76.1144 27.8269 75.3552 28.1415 74.7868 28.6951C74.2244 29.2577 73.9084 30.0206 73.9084 30.8161C73.9084 31.6116 74.2244 32.3745 74.7868 32.9371C75.3562 33.4894 76.1147 33.8038 76.9078 33.8161L81.8608 33.8071C82.6546 33.7966 83.4141 33.482 83.9828 32.9281C84.5452 32.3655 84.8612 31.6026 84.8612 30.8071C84.8612 30.0116 84.5452 29.2487 83.9828 28.6861C83.4131 28.1338 82.6542 27.8194 81.8608 27.8071Z" fill="#645D5C"/>
<path d="M26.3279 45.6221L21.3749 45.6311C20.5812 45.6413 19.8217 45.9555 19.2529 46.5091C18.9743 46.7876 18.7532 47.1184 18.6024 47.4824C18.4516 47.8464 18.374 48.2366 18.374 48.6306C18.374 49.0246 18.4516 49.4147 18.6024 49.7787C18.7532 50.1427 18.9743 50.4735 19.2529 50.7521C19.8226 51.3044 20.5815 51.6188 21.3749 51.6311L26.3279 51.6221C27.1213 51.6113 27.8804 51.2967 28.4489 50.7431C28.7275 50.4645 28.9485 50.1337 29.0993 49.7697C29.2501 49.4057 29.3277 49.0156 29.3277 48.6216C29.3277 48.2276 29.2501 47.8374 29.0993 47.4734C28.9485 47.1094 28.7275 46.7787 28.4489 46.5001C27.8797 45.9476 27.121 45.6336 26.3279 45.6221Z" fill="#4BB9AA"/>
<path d="M44.8389 45.6221L39.8859 45.6311C39.0922 45.6413 38.3327 45.9555 37.7639 46.5091C37.4852 46.7876 37.2642 47.1184 37.1134 47.4824C36.9626 47.8464 36.885 48.2366 36.885 48.6306C36.885 49.0246 36.9626 49.4147 37.1134 49.7787C37.2642 50.1427 37.4852 50.4735 37.7639 50.7521C38.3336 51.3044 39.0925 51.6188 39.8859 51.6311L44.8389 51.6221C45.6323 51.6113 46.3914 51.2967 46.9599 50.7431C47.2385 50.4645 47.4595 50.1337 47.6103 49.7697C47.7611 49.4057 47.8387 49.0156 47.8387 48.6216C47.8387 48.2276 47.7611 47.8374 47.6103 47.4734C47.4595 47.1094 47.2385 46.7787 46.9599 46.5001C46.3907 45.9476 45.632 45.6336 44.8389 45.6221Z" fill="#645D5C"/>
<path d="M63.3498 45.6221L58.3968 45.6311C57.6034 45.6407 56.844 45.9551 56.2758 46.5091C55.9972 46.7876 55.7762 47.1184 55.6254 47.4824C55.4746 47.8464 55.397 48.2366 55.397 48.6306C55.397 49.0246 55.4746 49.4147 55.6254 49.7787C55.7762 50.1427 55.9972 50.4735 56.2758 50.7521C56.8451 51.3045 57.6037 51.6189 58.3968 51.6311L63.3498 51.6221C64.1436 51.6116 64.9031 51.297 65.4718 50.7431C65.7505 50.4645 65.9715 50.1337 66.1223 49.7697C66.2731 49.4057 66.3507 49.0156 66.3507 48.6216C66.3507 48.2276 66.2731 47.8374 66.1223 47.4734C65.9715 47.1094 65.7505 46.7787 65.4718 46.5001C64.9022 45.9477 64.1432 45.6336 63.3498 45.6221Z" fill="#645D5C"/>
<path d="M26.6282 63.7949L21.6752 63.8039C20.8814 63.8144 20.1219 64.129 19.5532 64.6829C19.2745 64.9615 19.0535 65.2922 18.9027 65.6563C18.7519 66.0203 18.6743 66.4104 18.6743 66.8044C18.6743 67.1984 18.7519 67.5886 18.9027 67.9526C19.0535 68.3166 19.2745 68.6473 19.5532 68.9259C20.1228 69.4783 20.8818 69.7924 21.6752 69.8039L26.6282 69.7949C27.4216 69.7851 28.1809 69.4707 28.7492 68.9169C29.0278 68.6383 29.2488 68.3076 29.3996 67.9436C29.5504 67.5796 29.628 67.1894 29.628 66.7954C29.628 66.4014 29.5504 66.0113 29.3996 65.6473C29.2488 65.2832 29.0278 64.9525 28.7492 64.6739C28.1798 64.1216 27.4213 63.8073 26.6282 63.7949Z" fill="#4BB9AA"/>
<path d="M44.8389 63.436L39.8859 63.445C39.0921 63.4555 38.3326 63.7701 37.7639 64.324C37.4852 64.6026 37.2642 64.9334 37.1134 65.2974C36.9626 65.6614 36.885 66.0515 36.885 66.4455C36.885 66.8395 36.9626 67.2297 37.1134 67.5937C37.2642 67.9577 37.4852 68.2885 37.7639 68.567C38.3335 69.1194 39.0925 69.4335 39.8859 69.445L44.8389 69.436C45.6323 69.4262 46.3916 69.1119 46.9599 68.558C47.2385 68.2795 47.4595 67.9487 47.6103 67.5847C47.7611 67.2207 47.8387 66.8305 47.8387 66.4365C47.8387 66.0425 47.7611 65.6524 47.6103 65.2884C47.4595 64.9244 47.2385 64.5936 46.9599 64.315C46.3905 63.7628 45.632 63.4484 44.8389 63.436Z" fill="#645D5C"/>
<path d="M70.834 2.4C70.834 5.584 70.834 8.76833 70.834 11.953C70.834 12.5895 71.0868 13.2 71.5369 13.6501C71.987 14.1001 72.5975 14.353 73.234 14.353C73.8705 14.353 74.481 14.1001 74.931 13.6501C75.3811 13.2 75.634 12.5895 75.634 11.953C75.634 8.769 75.634 5.58467 75.634 2.4C75.634 1.76348 75.3811 1.15303 74.931 0.702944C74.481 0.252856 73.8705 0 73.234 0C72.5975 0 71.987 0.252856 71.5369 0.702944C71.0868 1.15303 70.834 1.76348 70.834 2.4Z" fill="#645D5C"/>
<path d="M28.3528 2.4C28.3528 5.584 28.3528 8.76833 28.3528 11.953C28.3528 12.5895 28.6056 13.2 29.0557 13.6501C29.5058 14.1001 30.1163 14.353 30.7528 14.353C31.3893 14.353 31.9998 14.1001 32.4498 13.6501C32.8999 13.2 33.1528 12.5895 33.1528 11.953C33.1528 8.769 33.1528 5.58467 33.1528 2.4C33.1528 2.08483 33.0907 1.77274 32.9701 1.48156C32.8495 1.19038 32.6727 0.925804 32.4498 0.702944C32.227 0.480083 31.9624 0.3033 31.6712 0.182689C31.38 0.0620779 31.068 0 30.7528 0C30.4376 0 30.1255 0.0620779 29.8343 0.182689C29.5432 0.3033 29.2786 0.480083 29.0557 0.702944C28.8329 0.925804 28.6561 1.19038 28.5355 1.48156C28.4149 1.77274 28.3528 2.08483 28.3528 2.4Z" fill="#645D5C"/>
<path d="M96.3149 41.875C77.9849 41.875 65.3149 56.075 65.3149 72.683C65.3149 91.27 78.2569 104.069 96.3149 104.069C115.069 104.069 127.315 91.15 127.315 72.683C127.316 55.958 114.58 41.875 96.3149 41.875Z" fill="#D9D9D9"/>
<path d="M96.3338 75.382H107.301C107.937 75.382 108.548 75.1292 108.998 74.6791C109.448 74.229 109.701 73.6186 109.701 72.982C109.701 72.3455 109.448 71.7351 108.998 71.285C108.548 70.8349 107.937 70.582 107.301 70.582H96.3338C95.6973 70.582 95.0869 70.8349 94.6368 71.285C94.1867 71.7351 93.9338 72.3455 93.9338 72.982C93.9338 73.6186 94.1867 74.229 94.6368 74.6791C95.0869 75.1292 95.6973 75.382 96.3338 75.382Z" fill="#645D5C"/>
<path d="M93.9338 56.357C93.9338 61.8904 93.9338 67.4257 93.9338 72.963C93.9338 73.5995 94.1867 74.21 94.6368 74.6601C95.0869 75.1102 95.6973 75.363 96.3338 75.363C96.9704 75.363 97.5808 75.1102 98.0309 74.6601C98.481 74.21 98.7338 73.5995 98.7338 72.963C98.7245 67.4297 98.7245 61.8944 98.7338 56.357C98.7338 55.7205 98.481 55.1101 98.0309 54.66C97.5808 54.2099 96.9704 53.957 96.3338 53.957C95.6973 53.957 95.0869 54.2099 94.6368 54.66C94.1867 55.1101 93.9338 55.7205 93.9338 56.357Z" fill="#645D5C"/>
</svg>
