<svg width="346" height="356" viewBox="0 0 346 356" fill="none" xmlns="http://www.w3.org/2000/svg">
<path d="M189.252 211.462C191.039 209.313 192.677 207.043 194.152 204.669C195.833 202.287 197.008 199.584 197.602 196.73C197.9 194.32 197.565 191.874 196.632 189.632C195.698 187.391 194.198 185.43 192.278 183.944C190.062 182.203 187.396 181.131 184.592 180.851C181.788 180.572 178.963 181.098 176.447 182.367C172.647 184.254 169.606 187.367 166.891 190.625C164.414 193.454 162.348 196.618 160.755 200.025C159.162 203.449 158.596 207.261 159.123 211C159.315 212.623 159.831 214.192 160.642 215.611C161.453 217.031 162.542 218.273 163.843 219.263C165.144 220.253 166.631 220.971 168.215 221.373C169.8 221.776 171.449 221.856 173.065 221.608C175.795 221.239 178.418 220.304 180.765 218.861C183.99 216.89 186.86 214.388 189.252 211.462Z" fill="#FCE0CD"/>
<path d="M189.252 138.5C191.039 136.351 192.677 134.081 194.152 131.707C195.833 129.325 197.007 126.622 197.602 123.768C197.899 121.358 197.565 118.912 196.632 116.67C195.698 114.429 194.198 112.468 192.278 110.982C190.062 109.241 187.396 108.169 184.592 107.889C181.788 107.61 178.963 108.136 176.447 109.405C172.647 111.292 169.606 114.405 166.891 117.663C164.414 120.49 162.348 123.653 160.755 127.058C159.162 130.483 158.596 134.297 159.125 138.038C159.316 139.662 159.833 141.23 160.644 142.65C161.455 144.07 162.543 145.312 163.844 146.302C165.145 147.292 166.632 148.01 168.217 148.412C169.801 148.815 171.451 148.895 173.067 148.647C175.797 148.278 178.42 147.342 180.767 145.899C183.992 143.928 186.861 141.427 189.252 138.5Z" fill="#FCE0CD"/>
<path d="M189.252 178.5C191.039 176.35 192.676 174.08 194.152 171.706C195.833 169.324 197.008 166.622 197.602 163.768C197.899 161.358 197.565 158.912 196.632 156.67C195.698 154.429 194.198 152.468 192.278 150.982C190.062 149.241 187.396 148.168 184.592 147.889C181.788 147.609 178.963 148.135 176.447 149.404C172.647 151.291 169.606 154.404 166.891 157.662C164.413 160.491 162.348 163.656 160.755 167.062C159.162 170.488 158.596 174.302 159.125 178.043C159.317 179.666 159.833 181.235 160.644 182.654C161.455 184.074 162.544 185.316 163.845 186.306C165.146 187.296 166.633 188.014 168.217 188.417C169.802 188.82 171.451 188.9 173.067 188.652C175.797 188.283 178.42 187.347 180.767 185.904C183.992 183.931 186.86 181.428 189.252 178.5Z" fill="#FCE0CD"/>
<path d="M167.994 63.0561C166.207 65.2054 164.57 67.4751 163.094 69.8491C161.412 72.2309 160.238 74.9327 159.644 77.7871C159.346 80.197 159.681 82.6429 160.614 84.8846C161.547 87.1262 163.048 89.0866 164.968 90.5731C167.184 92.3147 169.851 93.3882 172.656 93.6677C175.46 93.9472 178.287 93.4211 180.803 92.1511C184.603 90.2641 192.296 83.1281 195.011 79.8701C197.73 76.408 200.146 72.7184 202.233 68.8421C203.948 65.2724 204.485 61.2506 203.767 57.3561C203.498 55.5708 202.828 53.8697 201.808 52.3803C200.788 50.8909 199.443 49.6518 197.876 48.7561C195.452 47.4204 192.665 46.8948 189.922 47.2561C187.192 47.6249 184.569 48.5609 182.222 50.0041C178.964 51.9251 170.44 60.1561 167.994 63.0561Z" fill="#FCE0CD"/>
<path d="M12.251 277.915C4.93 262.815 8.919 244.315 8.151 227.093C7.04 202.2 5.262 179.538 0.702995 141.982C-0.207005 134.475 -0.813004 126.96 2.703 120.265C6.219 113.57 14.067 111.014 21.369 112.982C27.969 114.76 31.926 118.869 34.435 125.227L156.094 254.145C139.796 270.181 121.651 284.225 102.04 295.982L12.251 277.915Z" fill="#FCE0CD"/>
<path d="M177.253 27.2759L30.82 27.2869H30.384C30.384 60.2159 30.384 203.023 30.384 238.676C30.669 238.676 30.823 238.676 30.823 238.676L181.375 238.666H181.52C181.52 202.997 181.52 60.1879 181.52 27.2809H177.253V27.2759Z" fill="white"/>
<path d="M96.0489 16.955C102.649 16.955 109.249 16.9514 115.849 16.944C118.938 16.944 118.943 12.144 115.849 12.144C109.249 12.144 102.649 12.1477 96.0489 12.155C92.9599 12.155 92.9548 16.955 96.0489 16.955Z" fill="#BDBDBD"/>
<path d="M106.083 87.0498C78.6298 87.0498 59.6538 108.313 59.6538 133.194C59.6538 161.032 79.0378 180.203 106.084 180.203C134.173 180.203 152.515 160.853 152.515 133.194C152.515 108.143 133.439 87.0498 106.083 87.0498Z" fill="#D9D9D9"/>
<path d="M276.425 355.093C259.364 353.627 238.133 349.117 223.125 339.05C216.842 334.837 202.725 319.206 187.074 304.008C182.289 299.361 179.712 293.957 181.574 287.551C182.111 285.737 183.099 284.089 184.448 282.762C185.796 281.435 187.46 280.473 189.282 279.966C192.146 279.124 195.1 278.622 198.082 278.473L198.671 278.423C185.94 261.667 166.653 236.253 153.644 219.351C148.944 213.24 145.27 200.583 153.718 194.081C161.918 187.77 170.261 192.555 176.347 199.306C186.018 210.033 207.152 235.778 217.14 246.73C216.606 240.592 219.85 234.656 227.517 231.941C233.505 229.821 240.041 231.659 242.772 236.972C241.077 231.463 244.13 224.657 250.687 221.606C257.244 218.555 265.28 219.268 268.701 224.906C268.075 219.592 272.89 215.416 277.615 213.73C282.699 211.915 290.345 213.512 295.926 220.169C306.779 233.113 315.572 246.75 323.206 258.538C334.356 275.754 341.935 288.744 345.977 296.06L276.425 355.093Z" fill="#FCE0CD"/>
<path d="M83.744 139.051C88.161 143.473 92.489 147.984 96.904 152.409C98.0622 153.531 99.6117 154.159 101.224 154.159C102.837 154.159 104.387 153.531 105.545 152.409C114.65 143.469 123.672 134.444 132.611 125.334C133.757 124.188 134.401 122.634 134.401 121.013C134.401 119.393 133.757 117.838 132.611 116.692C131.466 115.546 129.911 114.902 128.291 114.902C126.67 114.902 125.116 115.546 123.97 116.692C115.053 125.82 106.031 134.845 96.903 143.768H105.544C101.129 139.343 96.802 134.832 92.384 130.41C91.2381 129.264 89.684 128.62 88.0635 128.62C86.443 128.62 84.8888 129.264 83.743 130.41C82.5971 131.556 81.9534 133.11 81.9534 134.73C81.9534 136.351 82.5981 137.905 83.744 139.051Z" fill="#4AB9AA"/>
<path d="M168.418 238.658L30.3809 238.664V246.764C30.3809 252.198 32.5395 257.41 36.3819 261.252C40.2244 265.095 45.4358 267.253 50.8699 267.253H161.031C165.179 267.251 169.228 265.989 172.643 263.635C176.058 261.28 178.678 257.944 180.155 254.068C176.248 248.932 172.279 243.719 168.418 238.658Z" fill="#D9D9D9"/>
<path d="M181.52 20.489C181.52 17.7983 180.99 15.134 179.96 12.6482C178.931 10.1624 177.421 7.90367 175.519 6.00109C173.616 4.09851 171.357 2.5893 168.872 1.55963C166.386 0.529964 163.722 0 161.031 0L50.8699 0C45.4358 0 40.2244 2.15866 36.3819 6.00109C32.5395 9.84352 30.3809 15.055 30.3809 20.489V27.289L181.52 27.283V20.489Z" fill="#D9D9D9"/>
</svg>
